# xmcd
#
# Track frame offsets:
#	150
#	12989
#	24290
#	36676
#	50745
#	61866
#	73096
#	84229
#	96727
#	108315
#	119564
#	130942
#	143759
#	155894
#	169406
#	180714
#	191263
#	203385
#	214522
#	225984
#	236468
#	248863
#	259147
#	271305
#	282028
#	292419
#
# Disc length: 4033 seconds
#
# Revision: 0
# Processed by: cddbd v1.5.2PL0 Copyright (c) Steve Scherf et al.
# Submitted via: audiograbber 1.83.01
#
DISCID=840fbf1a
DTITLE=Mitchell Torok - "When Mexico Gave Up The Rhumba" The Best Off
DYEAR=2008
DGENRE=Country
TTITLE0=Nacogdoches Country Line
TTITLE1=I'll Get My Lovin' From Someone Else
TTITLE2=Clingin' Heart
TTITLE3=Piney Woods Boogie
TTITLE4=Yearnin' (with Sally Lee)
TTITLE5=Table Hoppin' Blues (Sally Lee solo)
TTITLE6=Someday (When Someone Hurts You) with Sally Lee
TTITLE7=Sober Up (with Sally Lee)
TTITLE8=Little Ho-Wee
TTITLE9=Judalina
TTITLE10=Caribbean
TTITLE11=Weep Away
TTITLE12=Hootchy Kootchy Henry (from Hawaii)
TTITLE13=Gigolo
TTITLE14=Edgar The Easter Bunny
TTITLE15=Living On Love
TTITLE16=The Haunting Waterfall
TTITLE17=Dancerette
TTITLE18=Roulette
TTITLE19=Havana Huddle
TTITLE20=A Peasant's Guitar
TTITLE21=The World Keeps Turning Around
TTITLE22=Smooth Talk (with Gail Ramona Redd)
TTITLE23=Too Late Now
TTITLE24=Marching My Blues Away
TTITLE25=Country And Western (That's For Me)
EXTD=
EXTT0=
EXTT1=
EXTT2=
EXTT3=
EXTT4=
EXTT5=
EXTT6=
EXTT7=
EXTT8=
EXTT9=
EXTT10=
EXTT11=
EXTT12=
EXTT13=
EXTT14=
EXTT15=
EXTT16=
EXTT17=
EXTT18=
EXTT19=
EXTT20=
EXTT21=
EXTT22=
EXTT23=
EXTT24=
EXTT25=
PLAYORDER=
